HIERARCHY
ROOT Hips
{
  OFFSET 46.725 84.1634 -9.68205
  CHANNELS 6 Xposition Yposition Zposition Zrotation Xrotation Yrotation
  JOINT spine
  {
    OFFSET 0 6.2448 0.359107
    CHANNELS 3 Zrotation Xrotation Yrotation
    JOINT spine1
    {
      OFFSET 0 9.06941 0
      CHANNELS 3 Zrotation Xrotation Yrotation
      JOINT spine2
      {
        OFFSET 0 8.69014 0
        CHANNELS 3 Zrotation Xrotation Yrotation
        JOINT Neck
        {
          OFFSET 0 22.3112 1.06372
          CHANNELS 3 Zrotation Xrotation Yrotation
          JOINT Head
          {
            OFFSET 0 6.74081 0
            CHANNELS 3 Zrotation Xrotation Yrotation
            End Site
            {
              OFFSET 0 16.3165 -5.38097
            }
          }
        }
        JOINT RightShoulder
        {
          OFFSET -3.65916 9.38468 -0.509514
          CHANNELS 3 Zrotation Xrotation Yrotation
          JOINT RightArm
          {
            OFFSET 0 12.3089 0
            CHANNELS 3 Zrotation Xrotation Yrotation
            JOINT RightArmRoll
            {
              OFFSET 0 6.21375 0
              CHANNELS 3 Zrotation Xrotation Yrotation
              JOINT RightForeArm
              {
                OFFSET 0 18.0985 0
                CHANNELS 3 Zrotation Xrotation Yrotation
                JOINT RightForeArmRoll
                {
                  OFFSET 0 6.9728 0
                  CHANNELS 3 Zrotation Xrotation Yrotation
                  JOINT RightHand
                  {
                    OFFSET 0 13.9929 0
                    CHANNELS 3 Zrotation Xrotation Yrotation
                    End Site
                    {
                      OFFSET 0 0 0
                    }
                  }
                }
              }
            }
          }
        }
        JOINT LeftShoulder
        {
          OFFSET 3.65916 9.38468 -0.509514
          CHANNELS 3 Zrotation Xrotation Yrotation
          JOINT LeftArm
          {
            OFFSET 0 12.3089 0
            CHANNELS 3 Zrotation Xrotation Yrotation
            JOINT LeftArmRoll
            {
              OFFSET 0 6.21375 0
              CHANNELS 3 Zrotation Xrotation Yrotation
              JOINT LeftForeArm
              {
                OFFSET 0 18.0985 0
                CHANNELS 3 Zrotation Xrotation Yrotation
                JOINT LeftForeArmRoll
                {
                  OFFSET 0 6.97279 0
                  CHANNELS 3 Zrotation Xrotation Yrotation
                  JOINT LeftHand
                  {
                    OFFSET 0 13.9929 0
                    CHANNELS 3 Zrotation Xrotation Yrotation
                    End Site
                    {
                      OFFSET 0 0 0
                    }
                  }
                }
              }
            }
          }
        }
      }
    }
  }
  JOINT RightUpLeg
  {
    OFFSET -5.53515 -1.015 -0.851454
    CHANNELS 3 Zrotation Xrotation Yrotation
    JOINT RightUpLegRoll
    {
      OFFSET 0 16.4075 0
      CHANNELS 3 Zrotation Xrotation Yrotation
      JOINT RightLeg
      {
        OFFSET 0 -20.3181 0
        CHANNELS 3 Zrotation Xrotation Yrotation
        JOINT RightLegRoll
        {
          OFFSET 0 20.3846 0
          CHANNELS 3 Zrotation Xrotation Yrotation
          JOINT RightFoot
          {
            OFFSET 0 16.9668 0
            CHANNELS 3 Zrotation Xrotation Yrotation
            JOINT RightToeBase
            {
              OFFSET 0 14.1834 0
              CHANNELS 3 Zrotation Xrotation Yrotation
              End Site
              {
                OFFSET 0.0060118 6.8689 -0.791745
              }
            }
          }
        }
      }
    }
  }
  JOINT LeftUpLeg
  {
    OFFSET 5.53515 -1.015 -0.851454
    CHANNELS 3 Zrotation Xrotation Yrotation
    JOINT LeftUpLegRoll
    {
      OFFSET 0 16.4076 0
      CHANNELS 3 Zrotation Xrotation Yrotation
      JOINT LeftLeg
      {
        OFFSET 0 20.3181 0
        CHANNELS 3 Zrotation Xrotation Yrotation
        JOINT LeftLegRoll
        {
          OFFSET 0 20.5731 0
          CHANNELS 3 Zrotation Xrotation Yrotation
          JOINT LeftFoot
          {
            OFFSET 0 16.7783 0
            CHANNELS 3 Zrotation Xrotation Yrotation
            JOINT LeftToeBase
            {
              OFFSET 0 14.1834 0
              CHANNELS 3 Zrotation Xrotation Yrotation
              End Site
              {
                OFFSET -0.0269423 6.8689 -0.791746
              }
            }
          }
        }
      }
    }
  }
}
MOTION
Frames: 6
Frame Time: 0.00208333
46.6494 92.1728 -11.2356 0.881961 6.58216 -1.156 -0.24482 -2.49733 -0.0477923 -0.490435 -0.991737 -0.0744672 -0.489557 0.653305 -0.0662645 -12.1504 -9.63166 0.210962 10.6698 17.8125 -2.17485 29.6652 -16.2556 -12.892 76.4757 45.1832 29.4646 3.18055e-015 -3.18055e-015 -0 1.58313 28.8841 -1.52322 -1.24852e-005 -3.72997e-007 -3 8.02891 -4.9515 0.697715 -23.5111 -24.4074 23.687 -43.5423 55.9416 -57.7269 4.25548e-006 1.85815e-006 2.01307e-007 8.65307 6.64811 -0.104837 4.02523e-006 -2.82014e-007 3 -8.02959 -4.95156 -0.697704 169.49 13.864 1.96074 180 7.01569e-015 179.023 -176.612 17.3196 178.561 -4.11128e-006 -4.01492e-006 -0.355873 -16.4207 64.3153 16.8993 8.1365 25.2327 -3.48774 -166.607 10.9696 -4.64552 4.54188e-006 -4.6773e-006 -1.02072 3.49295 -17.0479 1.67585 -1.10866e-006 5.05348e-006 -0.0227359 17.4151 66.8557 -18.645 -8.13649 25.2326 3.48773 
46.6148 92.3027 -11.1965 0.855411 6.59005 -1.11806 -0.238713 -2.49086 -0.0433613 -0.478094 -0.978817 -0.0660979 -0.477317 0.666227 -0.0581015 -12.1627 -9.91504 0.159683 10.681 17.9882 -2.21884 29.9626 -16.2935 -12.9009 77.0823 44.9516 28.8424 -3.18055e-015 -6.36111e-015 1.59028e-014 1.73845 28.666 -1.5622 -1.24852e-005 -3.72997e-007 -3 8.02891 -4.9515 0.697715 -23.9316 -24.3218 23.4492 -44.4541 55.8171 -57.1027 4.25548e-006 1.85815e-006 2.01307e-007 8.7055 6.58467 -0.0964125 4.02523e-006 -2.82014e-007 3 -8.02959 -4.95156 -0.697704 169.671 13.9032 1.92823 180 7.01568e-015 179.021 -176.706 17.3035 178.578 -4.11128e-006 -4.01492e-006 -0.343338 -16.4108 64.3318 16.911 8.1365 25.2327 -3.48774 -166.737 11.0464 -4.59312 4.54188e-006 -4.6773e-006 -1.01586 3.44941 -17.0907 1.67166 -1.10866e-006 5.05348e-006 -0.0322821 17.4563 66.9177 -18.6909 -8.13649 25.2326 3.48773 
46.6082 92.3991 -11.185 0.82451 6.59748 -1.0795 -0.233333 -2.48451 -0.0392683 -0.467213 -0.966139 -0.0583436 -0.466531 0.678906 -0.0505291 -12.1297 -10.1841 0.108695 10.6497 18.1477 -2.25313 30.2965 -16.3256 -12.8985 77.6273 44.7165 28.2559 -7.95139e-015 3.18055e-015 3.18055e-015 1.89966 28.4294 -1.60094 -1.24852e-005 -3.72997e-007 -3 8.02891 -4.9515 0.697715 -24.3218 -24.2286 23.2127 -45.4075 55.6744 -56.4515 4.25548e-006 1.85815e-006 2.01307e-007 8.75893 6.53307 -0.0897462 4.02523e-006 -2.82014e-007 3 -8.02959 -4.95156 -0.697704 169.858 13.9433 1.89322 180 7.01568e-015 179.019 -176.803 17.295 178.594 -4.11128e-006 -4.01492e-006 -0.330885 -16.4014 64.3475 16.9221 8.1365 25.2327 -3.48774 -166.86 11.1278 -4.54736 4.54188e-006 -4.6773e-006 -1.01078 3.40284 -17.1465 1.66771 -1.10866e-006 5.05348e-006 -0.0423432 17.4997 66.9825 -18.7389 -8.13649 25.2326 3.48773 
46.6147 92.5128 -11.1399 0.789797 6.6046 -1.04052 -0.228523 -2.47827 -0.0354748 -0.457484 -0.953682 -0.0511409 -0.456889 0.691365 -0.0434889 -12.0583 -10.4403 0.0580647 10.5818 18.2927 -2.27894 30.6626 -16.3521 -12.8855 78.1166 44.4781 27.7028 -1.11319e-014 -6.36111e-015 3.18055e-015 2.06537 28.1776 -1.63927 -1.24852e-005 -3.72997e-007 -3 8.02891 -4.9515 0.697715 -24.6869 -24.1281 22.977 -46.3939 55.5128 -55.7782 4.25548e-006 1.85815e-006 2.01307e-007 8.81231 6.49231 -0.0846127 4.02523e-006 -2.82014e-007 3 -8.02959 -4.95156 -0.697704 170.051 13.9845 1.85567 180 7.01568e-015 179.018 -176.902 17.2936 178.611 -4.11128e-006 -4.01492e-006 -0.318527 -16.3923 64.3626 16.9329 8.1365 25.2327 -3.48774 -166.976 11.2133 -4.50739 4.54188e-006 -4.6773e-006 -1.00551 3.3536 -17.2137 1.66395 -1.10866e-006 5.05348e-006 -0.0528268 17.545 67.0495 -18.7888 -8.13649 25.2326 3.48773 
46.575 92.608 -11.1234 0.751806 6.61156 -1.00131 -0.224131 -2.47214 -0.0319424 -0.448597 -0.941421 -0.0444264 -0.448084 0.703626 -0.0369229 -11.9549 -10.6851 0.00785763 10.4835 18.4247 -2.29748 31.0566 -16.373 -12.8629 78.5558 44.2362 27.1813 -3.18055e-015 0 9.54166e-015 2.2342 27.9137 -1.67703 -1.24852e-005 -3.72997e-007 -3 8.02891 -4.9515 0.697715 -25.032 -24.0208 22.7411 -47.4046 55.3316 -55.0879 4.25548e-006 1.85815e-006 2.01307e-007 8.86459 6.46135 -0.0807866 4.02523e-006 -2.82014e-007 3 -8.02959 -4.95156 -0.697704 170.248 14.0271 1.81554 180 7.01568e-015 179.017 -177.002 17.2983 178.628 -4.11128e-006 -4.01492e-006 -0.306278 -16.3838 64.3774 16.9433 8.1365 25.2327 -3.48774 -167.086 11.3025 -4.47237 4.54188e-006 -4.6773e-006 -1.00011 3.30202 -17.2907 1.66032 -1.10866e-006 5.05348e-006 -0.0636406 17.5919 67.1183 -18.8403 -8.13649 25.2326 3.48773 
46.517 92.7083 -11.1497 0.711076 6.61851 -0.962075 -0.220002 -2.46609 -0.0286326 -0.440243 -0.929336 -0.0381368 -0.439806 0.715712 -0.0307729 -11.8263 -10.9201 -0.0418597 10.3605 18.5452 -2.30999 31.4743 -16.3885 -12.8314 78.9505 43.9906 26.6894 -3.53113e-031 6.36111e-015 3.18055e-015 2.40478 27.6407 -1.71408 -1.24852e-005 -3.72997e-007 -3 8.02891 -4.9515 0.697715 -25.3625 -23.907 22.5045 -48.4313 55.1306 -54.3855 4.25548e-006 1.85815e-006 2.01307e-007 8.91473 6.43916 -0.0780431 4.02523e-006 -2.82014e-007 3 -8.02959 -4.95156 -0.697704 170.449 14.0713 1.7728 180 7.01567e-015 179.016 -177.103 17.3085 178.645 -4.11128e-006 -4.01492e-006 -0.294153 -16.3758 64.392 16.9536 8.1365 25.2327 -3.48774 -167.192 11.3947 -4.44145 4.54188e-006 -4.6773e-006 -0.994597 3.24847 -17.3756 1.65678 -1.10866e-006 5.05348e-006 -0.0746921 17.6403 67.1884 -18.8932 -8.13649 25.2326 3.48773 
